<?xml version="1.0" encoding="utf-8"?>
<!-- Generator: Adobe Illustrator 23.0.0, SVG Export Plug-In . SVG Version: 6.00 Build 0)  -->
<svg version="1.1" xmlns="http://www.w3.org/2000/svg" xmlns:xlink="http://www.w3.org/1999/xlink" x="0px" y="0px"
	 viewBox="0 0 595.28 146" style="enable-background:new 0 0 595.28 146;" xml:space="preserve">
<style type="text/css">
	.st0{fill:none;stroke:#1C1C1C;stroke-width:2;stroke-miterlimit:10;}
	.st1{fill:#EF6621;}
</style>
<g id="Layer_1">
</g>
<g id="Layer_2">
	<polyline class="st0" points="573.92,65.7 573.92,13 13.25,13 13.25,112.67 86.81,112.67 	"/>
	<g>
		<g>
			<path class="st1" d="M129.79,119.04c-4.29,2.6-8.96,4.81-13.77,6.63c-4.94,1.95-10.39,3.77-15.59,4.29
				c-3.64,0.26-6.63-0.52-7.4-4.42c-0.91-4.16-0.13-8.7,0.52-12.73c2.34-13.12,6.37-25.85,10.39-38.45
				c1.95-5.98,4.16-11.95,6.11-18.06c-6.24,10.52-12.21,21.05-19.23,30.92c-3.64,5.2-6.63,10.13-13.25,11.17
				c-2.6,0.52-5.85,0.13-6.88-2.73c-0.91-2.21-1.04-4.81-1.17-7.27c-0.52-10,0.26-20.14,0.52-30.14
				c-4.42,8.83-10.39,19.49-15.07,28.71c0,0-3.9,8.18-5.72,14.55c-2.08-0.39-10-1.95-7.79-11.04c2.08-9.22,12.73-24.29,21.57-38.71
				c1.43-2.47,3.51-6.37,1.3-11.3c0,0,2.47-0.39,5.07-0.39c0-0.13,0-0.26,0-0.39c-0.26-2.34-0.52-6.24-2.6-7.93
				c0,0.13-0.13,0.13-0.26,0.26c-3.38,2.73-6.37,5.98-9.09,9.48c-1.3,1.69-4.29,2.34-6.24,2.73c-0.13,0-5.07,0.65-4.03-0.78
				c2.34-3.12,5.2-6.24,8.18-8.96c2.34-2.08,4.94-4.03,7.92-5.2c3.51-1.56,8.18-2.99,11.95-1.82c2.99,0.91,4.03,4.42,4.42,7.15
				c0.52,3.51,0.65,7.02,0.78,10.52c0.13,8.7-0.26,17.54-0.39,26.24c-0.26,5.85-0.78,12.21,0.26,18.06
				c8.44-11.56,15.2-24.42,22.6-36.51c2.99-4.94,5.98-10.13,9.74-14.55c2.21-2.47,4.94-3.64,8.31-4.42
				c1.04-0.26,4.68-1.04,4.68,1.04c0.13,2.86-1.17,6.11-1.95,8.83c-1.69,5.33-3.38,10.52-5.2,15.85
				c-4.29,12.99-8.7,26.11-11.95,39.49c-1.43,5.33-2.47,10.91-3.12,16.5c-0.78,5.85,1.43,9.87,1.82,10.13
				c4.42-1.04,8.96-2.47,12.99-4.68C126.15,116.7,131.73,117.87,129.79,119.04z"/>
			<path class="st1" d="M118.22,100.34c-1.17,6.88-1.56,14.42,0.39,14.81c2.47,0.39,12.73-12.73,12.73-12.73s0.52-1.04,1.3-0.26
				c1.43,1.56-10.13,16.11-14.03,16.37c-3.9,0.39-9.61-3.9-10.52-11.69c-0.13-2.08,0.39-5.46,1.56-9.22c-1.3-0.78-2.08-1.3-2.08-1.3
				s-1.17-1.56,1.43-1.69c0,0,0.52,0.26,1.43,0.65c3.12-9.35,9.22-20.27,14.68-22.21c8.05-2.99,9.61-1.17,10.13,0.13
				c0.39,0.91,0.52,5.46,0.26,7.92C135.24,84.36,132.9,97.22,118.22,100.34z M118.87,97.09c0.39,0,0.65-0.13,0.91-0.13
				c3.38-0.78,9.87-5.07,11.04-20.01C130.56,76.95,126.54,75.91,118.87,97.09z"/>
			<path class="st1" d="M150.05,64.35c4.29-1.56,5.98-0.13,5.72,1.3c-2.34,10.78-15.46,39.75-13.64,41.7
				c3.38,3.64,15.2-33.39,18.19-35.08c3.12-1.56,3.12,3.64,3.12,3.64c-4.55,12.34-6.76,21.18-5.2,26.37
				c2.99,9.48,7.79-0.52,7.92,0.78c0.13,2.99-4.29,9.09-9.35,8.83c-4.94-0.26-6.76-8.44-6.76-8.44
				c-7.15,15.85-11.95,13.38-13.38,12.47c-6.63-4.68,5.85-34.82,5.85-34.82s-1.56,2.99-2.34,3.9c-0.78,0.91-2.73,1.04-2.6,0.39
				C137.97,84.1,141.87,67.34,150.05,64.35z"/>
		</g>
	</g>
	<g>
		<g>
			<g>
				<g>
					<g>
						<path class="st1" d="M223.65,52.58c2.59,0,5.09,0.26,7.5,0.77c2.4,0.51,4.51,1.35,6.32,2.51c1.81,1.16,3.25,2.71,4.34,4.66
							c1.08,1.94,1.62,4.32,1.62,7.13c0,3.13-0.57,6.08-1.7,8.83c-1.13,2.76-2.63,5.28-4.5,7.58c-1.86,2.3-3.98,4.36-6.36,6.2
							c-2.38,1.84-4.79,3.43-7.25,4.78c-2.46,1.35-4.85,2.43-7.17,3.24c-2.32,0.81-4.38,1.35-6.16,1.62
							c-0.6,1.46-1.07,2.84-1.42,4.13c-0.35,1.3-0.53,2.65-0.53,4.05c0,0.59-0.19,0.94-0.57,1.05c-0.38,0.11-0.76,0.16-1.13,0.16
							c-0.43,0-0.92-0.11-1.46-0.32c-0.54-0.22-1.08-0.53-1.62-0.93c-0.54-0.41-0.99-0.88-1.34-1.42c-0.35-0.54-0.53-1.13-0.53-1.78
							c0-0.92,0.17-1.89,0.53-2.92c0.35-1.03,0.72-2.08,1.09-3.16c-1.08-0.43-1.89-1.16-2.43-2.19c-0.54-1.03-0.81-2-0.81-2.92
							c0-0.54,0.17-1.13,0.53-1.78c0.35-0.65,0.74-0.97,1.17-0.97c0.16,0,0.28,0.11,0.36,0.32c0.08,0.22,0.23,0.46,0.45,0.73
							c0.22,0.27,0.55,0.53,1.01,0.77c0.46,0.24,1.17,0.39,2.15,0.45c1.03-2.27,2.04-4.38,3.04-6.32c1-1.94,2.12-3.94,3.36-6
							c0.81-1.35,1.73-2.93,2.76-4.74c1.03-1.81,2-3.54,2.92-5.19c0.92-1.65,1.7-3.06,2.35-4.25c0.65-1.19,1-1.86,1.05-2.03
							c0.16-0.43,0.49-0.65,0.97-0.65c0.22,0,0.51,0.19,0.89,0.57c0.38,0.38,0.76,0.84,1.13,1.38c0.38,0.54,0.7,1.11,0.97,1.7
							c0.27,0.6,0.41,1.11,0.41,1.54c0,0.65-0.41,1.78-1.22,3.4c-0.81,1.62-1.77,3.4-2.88,5.35c-1.11,1.94-2.26,3.92-3.44,5.91
							c-1.19,2-2.13,3.7-2.84,5.11c-0.43,0.76-0.76,1.37-0.97,1.82c-0.22,0.46-0.38,0.82-0.49,1.09l-0.32,0.65
							c1.3-0.22,2.86-0.7,4.7-1.46c1.84-0.76,3.73-1.71,5.67-2.88c1.94-1.16,3.89-2.5,5.83-4.01c1.94-1.51,3.67-3.16,5.19-4.94
							c1.51-1.78,2.74-3.67,3.69-5.67c0.94-2,1.42-4.02,1.42-6.08c0-1.3-0.41-2.39-1.22-3.28c-0.81-0.89-1.81-1.63-3-2.23
							c-1.19-0.59-2.5-1.03-3.93-1.3c-1.43-0.27-2.74-0.41-3.93-0.41c-2.27,0-4.67,0.24-7.21,0.73c-2.54,0.49-5.08,1.16-7.62,2.03
							c-2.54,0.86-4.96,1.9-7.25,3.12c-2.3,1.22-4.34,2.54-6.12,3.97c-1.78,1.43-3.2,2.94-4.25,4.54c-1.05,1.59-1.58,3.23-1.58,4.9
							c0,0.43,0.05,0.96,0.16,1.58c0.11,0.62,0.32,1.2,0.65,1.74c0.32,0.54,0.76,1,1.3,1.38c0.54,0.38,1.27,0.57,2.19,0.57
							c0.81,0,1.22,0.22,1.22,0.65c0,0.22-0.22,0.42-0.65,0.61c-0.43,0.19-1.05,0.28-1.86,0.28c-1.08,0-2.13-0.24-3.16-0.73
							c-1.03-0.49-1.93-1.16-2.72-2.03c-0.78-0.86-1.42-1.89-1.9-3.08c-0.49-1.19-0.73-2.48-0.73-3.89c0-2.81,0.66-5.35,1.98-7.62
							c1.32-2.27,3.05-4.29,5.19-6.08c2.13-1.78,4.52-3.32,7.17-4.62c2.65-1.3,5.28-2.38,7.9-3.24c2.62-0.86,5.09-1.5,7.41-1.9
							C220.3,52.78,222.19,52.58,223.65,52.58z"/>
					</g>
				</g>
			</g>
			<g>
				<path class="st1" d="M265.14,89.1c-3.03,9.6-10.02,20.38-16.42,20.38c-3.2,0-6.9-3.96-7.24-6.32c-0.25-1.52-0.42-3.03-0.42-4.63
					c-0.08-10.53,6.23-20.89,13.56-25.6c1.18-0.76,2.61-1.18,3.87-1.18c3.12,0,6.57,1.52,8.17,4.29c0.17,1.01,0.25,2.11,0.25,3.2
					c0,1.85-0.08,3.45-0.5,5.56c5.81-0.5,12.62-3.66,14.39-7.62c0-0.08,1.6-0.42,2.02-0.42C283.07,82.75,270.7,90.53,265.14,89.1z
					 M261.35,87.42c-1.77-1.6-3.03-3.71-3.71-5.47c-5.64,5.64-9.6,13.64-9.6,20.13c0,0.93,0.09,1.77,0.25,2.61
					C252.09,104.18,258.06,95.33,261.35,87.42z"/>
			</g>
			<g>
				<path class="st1" d="M307.2,83.8c0,4.04-12.83,24.84-19.57,24.84c-4.3,0-5.81-3.28-5.81-5.22c0-4.46,3.28-13.56,9.69-25.69
					c-2.27,0.51-4.38,0.84-7.33,0.84c-0.67,3.79-5.47,13.31-10.95,21.31c-0.93,0-2.53-0.93-2.78-1.77
					c6.9-9.01,10.02-17.85,10.02-20.13c-1.68-0.51-2.78-3.12-2.78-6.15c0-1.1,0.84-5.81,5.05-5.81c1.35,0,4.3,1.35,4.3,3.37
					c0,1.52-0.59,3.28-1.26,4.97c2.95,0,5.56-2.11,8.76-2.11c2.61,0,5.31,3.28,5.31,4.72c0,0.34-0.08,0.59-0.34,0.76
					c-2.78,2.95-9.85,19.03-9.85,24.34c3.12,0,13.59-11.87,16.63-20.13C307.12,81.94,307.2,82.87,307.2,83.8z"/>
			</g>
			<g>
				<path class="st1" d="M308.26,78.66c2.86-7.24,9.77-24.51,12.29-24.51c1.6,0,5.14,2.86,5.14,4.63c0,0.25-0.08,0.51-0.25,0.76
					c-1.09,1.1-5.31,9.6-9.1,19.37c0.76,0,1.52,0.08,2.19,0.08c1.85,0,3.28-0.17,3.71-0.59c0,0,0.59,0.25,0.59,0.59
					c0,1.18-1.85,3.87-4.55,3.87h-3.45c-2.53,6.82-4.8,13.81-5.56,19.12c3.37-0.93,13.56-7.62,16.42-15.54c0,0,0.09-0.08,0.25-0.08
					c0.25,0,0.76,0.25,0.76,1.94c0,4.04-13.22,20.34-19.96,20.34c-4.3,0-5.81-3.28-5.81-5.22c0-3.03,2.27-11.2,5.73-20.63h-0.25
					c-1.77,0-2.53,0.51-3.12,0.51c-0.17,0-0.5-0.08-0.5-0.51c0-1.18,0.67-3.71,3.54-4.04C306.91,78.66,307.59,78.66,308.26,78.66z"
					/>
			</g>
			<g>
				<path class="st1" d="M360.14,84.81c0,4.04-10.36,23.92-17.1,23.92c-4.3,0-5.81-3.28-5.81-5.22c0-1.85,0.5-4.46,1.6-7.66
					c-3.87,5.64-9.01,12.46-11.03,12.46c-4.3,0-6.06-3.37-6.06-8.17c0-10.78,9.1-28.55,17.85-28.55c3.28,0,6.23,3.12,7.92,5.14
					c0.25-0.5,1.6-4.29,3.2-4.29c1.6,0,4.55,2.86,4.55,4.63c0,0.25-0.08,0.51-0.25,0.76c-2.86,2.86-9.94,19.03-9.94,24.25
					c3.12,0,11.12-10.86,14.06-19.12c0,0,0.08-0.08,0.25-0.08C359.63,82.87,360.14,83.12,360.14,84.81z M343.97,83.71
					c0.59-1.18,1.18-2.53,1.85-3.79c-0.67-0.76-1.85-1.6-4.21-1.6c-4.89,0-12.13,17.35-12.13,20.97c0,0.42,0.08,0.67,0.34,0.67
					C331.76,99.97,340.01,89.02,343.97,83.71z"/>
			</g>
		</g>
	</g>
	<g>
		<g>
			<g>
				<g>
					<g>
						<path class="st1" d="M413.92,68.52c0,2.76-0.7,5.34-2.11,7.74c-1.4,2.4-3.17,4.58-5.31,6.52c-2.13,1.94-4.5,3.65-7.09,5.11
							c-2.59,1.46-5.08,2.62-7.46,3.48c2.65,1.13,5.08,2.44,7.29,3.93c2.22,1.49,4.12,2.94,5.71,4.38c1.59,1.43,2.84,2.73,3.73,3.89
							c0.89,1.16,1.34,2.01,1.34,2.55c0,0.32-0.16,0.81-0.49,1.46c-0.32,0.65-0.74,1.3-1.26,1.94c-0.51,0.65-1.09,1.22-1.74,1.7
							c-0.65,0.49-1.32,0.73-2.03,0.73c-0.22,0-0.35-0.08-0.4-0.24c-0.05-0.05-0.08-0.14-0.08-0.24c-0.76-1.94-1.93-3.82-3.52-5.63
							c-1.59-1.81-3.34-3.52-5.23-5.15c-1.89-1.62-3.81-3.11-5.75-4.46c-1.95-1.35-3.62-2.48-5.02-3.4
							c-1.51,3.13-2.76,6.02-3.73,8.67c-0.97,2.65-1.46,4.56-1.46,5.75c0,0.49,0.03,0.84,0.08,1.05c-0.32,0.16-0.73,0.26-1.22,0.28
							c-0.49,0.03-0.87,0.04-1.13,0.04c-1.3,0-2.26-0.39-2.88-1.17c-0.62-0.78-0.93-1.74-0.93-2.88c0-0.92,0.19-1.99,0.57-3.2
							c0.38-1.22,0.84-2.5,1.38-3.85c0.54-1.35,1.13-2.7,1.78-4.05c0.65-1.35,1.27-2.62,1.86-3.81c-0.49-0.49-0.73-1.03-0.73-1.62
							c0-0.54,0.24-1.11,0.73-1.7c0.05,0.05,0.16,0.11,0.32,0.16c0.11,0.05,0.26,0.11,0.45,0.16c0.19,0.05,0.42,0.11,0.69,0.16
							c0.38-0.76,0.94-1.78,1.7-3.08c0.76-1.3,1.58-2.71,2.47-4.25c0.89-1.54,1.8-3.12,2.72-4.74c0.92-1.62,1.78-3.13,2.59-4.54
							c0.81-1.4,1.48-2.62,2.03-3.65c0.54-1.03,0.89-1.73,1.05-2.11c0.16-0.43,0.46-0.65,0.89-0.65c0.59,0,1.2,0.37,1.82,1.09
							c0.62,0.73,0.93,1.85,0.93,3.36c-0.27,0.81-0.74,1.92-1.42,3.32c-0.68,1.41-1.43,2.94-2.27,4.62
							c-0.84,1.67-1.72,3.39-2.63,5.15c-0.92,1.76-1.78,3.39-2.59,4.9c2.22-0.76,4.63-1.81,7.25-3.16c2.62-1.35,5.05-2.93,7.29-4.74
							c2.24-1.81,4.12-3.82,5.63-6.04c1.51-2.21,2.27-4.56,2.27-7.05c0-1.19-0.49-2.15-1.46-2.88c-0.97-0.73-2.08-1.3-3.32-1.7
							c-1.24-0.41-2.5-0.67-3.77-0.81c-1.27-0.13-2.18-0.2-2.72-0.2c-2.65,0-5.42,0.53-8.31,1.58c-2.89,1.05-5.54,2.51-7.94,4.38
							c-2.4,1.86-4.39,4.05-5.96,6.56c-1.57,2.51-2.35,5.25-2.35,8.22c0,1.08,0.05,1.94,0.16,2.59c0.11,0.65,0.21,1.16,0.32,1.54
							c0.11,0.38,0.22,0.65,0.32,0.81c0.11,0.16,0.16,0.32,0.16,0.49c0,0.22-0.1,0.35-0.28,0.41c-0.19,0.05-0.34,0.08-0.45,0.08
							c-0.65,0-1.23-0.26-1.74-0.77c-0.51-0.51-0.93-1.15-1.26-1.9c-0.32-0.76-0.58-1.54-0.77-2.35c-0.19-0.81-0.28-1.51-0.28-2.11
							c0-4.05,0.93-7.75,2.8-11.1c1.86-3.35,4.25-6.2,7.17-8.55c2.92-2.35,6.14-4.17,9.68-5.47c3.54-1.3,6.98-1.94,10.33-1.94
							c1.78,0,3.48,0.39,5.11,1.17c1.62,0.78,3.06,1.9,4.33,3.36c1.27,1.46,2.27,3.19,3,5.19
							C413.56,63.88,413.92,66.09,413.92,68.52z"/>
					</g>
				</g>
			</g>
			<g>
				<g>
					<path class="st1" d="M448.65,86.15c0,2.61-10.73,22.49-25.22,22.49c-6.57,0-9.85-5.73-9.85-9.52
						c0-10.78,9.01-27.96,17.77-27.96c4.8,0,9.1,3.71,9.1,6.82c0,9.69-9.77,17.52-15.66,17.52c-1.01,0-1.94-0.08-2.69-0.34
						c-0.42,1.68-0.76,3.03-0.76,3.96c0,3.37,1.26,4.8,3.79,4.8c7.75,0,20.42-13.73,22.52-19.54
						C448.56,84.39,448.65,85.23,448.65,86.15z M423.01,92.64c5.98-1.26,11.03-8.42,11.28-14.74
						C428.65,77.9,424.86,87.92,423.01,92.64z"/>
				</g>
				<g>
					<path class="st1" d="M449.62,78.24c2.86-7.24,9.77-24.51,12.29-24.51c1.6,0,5.14,2.86,5.14,4.63c0,0.25-0.08,0.51-0.25,0.76
						c-1.09,1.1-5.31,9.6-9.1,19.37c0.76,0,1.52,0.08,2.19,0.08c1.85,0,3.28-0.17,3.71-0.59c0,0,0.59,0.25,0.59,0.59
						c0,1.18-1.85,3.87-4.55,3.87h-3.45c-2.53,6.82-4.8,13.81-5.56,19.12c3.37-0.93,15.16-11.21,18.02-19.13
						c0,0,0.09-0.08,0.25-0.08c0.25,0,0.76,0.25,0.76,1.94c0,4.04-14.82,23.93-21.56,23.93c-4.3,0-5.81-3.28-5.81-5.22
						c0-3.03,2.27-11.2,5.73-20.63h-0.25c-1.77,0-2.53,0.51-3.12,0.51c-0.17,0-0.5-0.08-0.5-0.51c0-1.18,0.67-3.71,3.54-4.04
						C448.28,78.24,448.95,78.24,449.62,78.24z"/>
				</g>
				<g>
					<path class="st1" d="M497.04,85.92c0,4.04-13.4,22.29-20.13,22.29c-4.3,0-5.81-3.28-5.81-5.22c0-4.46,3.28-13.56,9.69-25.69
						c-2.27,0.51-4.38,0.84-7.33,0.84c-3.58,9.57-8.15,14.9-12.78,20.49c-0.93,0-0.78-0.72-1.03-1.56
						c6.9-9.01,10.11-17.24,10.11-19.52c-1.68-0.51-2.78-3.12-2.78-6.15c0-1.1,0.84-5.81,5.05-5.81c1.35,0,4.3,1.35,4.3,3.37
						c0,1.52-0.59,3.28-1.26,4.97c2.95,0,5.56-2.11,8.76-2.11c2.61,0,5.31,3.28,5.31,4.72c0,0.34-0.08,0.59-0.34,0.76
						c-2.78,2.95-9.85,19.03-9.85,24.34c3.12,0,14.15-9.33,17.19-17.58C496.96,84.07,497.04,85,497.04,85.92z"/>
				</g>
				<g>
					<path class="st1" d="M532.53,86.91c0,4.04-12.75,21.39-19.49,21.39c-4.3,0-5.81-3.28-5.81-5.22c0-1.85,0.5-4.46,1.6-7.66
						c-3.87,5.64-9.01,12.46-11.03,12.46c-4.3,0-6.06-3.37-6.06-8.17c0-10.78,9.1-28.55,17.85-28.55c3.28,0,6.23,3.12,7.92,5.14
						c0.25-0.5,1.6-4.29,3.2-4.29c1.6,0,4.55,2.86,4.55,4.63c0,0.25-0.08,0.51-0.25,0.76c-2.86,2.86-9.94,19.03-9.94,24.25
						c3.12,0,13.51-8.34,16.45-16.59c0,0,0.08-0.08,0.25-0.08C532.02,84.98,532.53,85.23,532.53,86.91z M513.97,83.29
						c0.59-1.18,1.18-2.53,1.85-3.79c-0.67-0.76-1.85-1.6-4.21-1.6c-4.89,0-12.13,17.35-12.13,20.97c0,0.42,0.08,0.67,0.34,0.67
						C501.76,99.54,510.01,88.6,513.97,83.29z"/>
				</g>
				<g>
					<path class="st1" d="M533.84,78.24c2.86-7.24,9.77-24.51,12.3-24.51c1.6,0,5.14,2.86,5.14,4.63c0,0.25-0.09,0.51-0.25,0.76
						c-1.09,1.1-5.31,9.6-9.1,19.37c0.76,0,1.52,0.08,2.19,0.08c1.85,0,3.28-0.17,3.7-0.59c0,0,0.59,0.25,0.59,0.59
						c0,1.18-1.85,3.87-4.55,3.87h-3.45c-2.53,6.82-4.8,13.81-5.56,19.12c3.37-0.93,13.36-8.59,16.22-16.51c0,0,0.08-0.08,0.25-0.08
						c0.25,0,0.76,0.25,0.76,1.94c0,4.04-13.02,21.31-19.76,21.31c-4.29,0-5.81-3.28-5.81-5.22c0-3.03,2.27-11.2,5.73-20.63h-0.25
						c-1.77,0-2.53,0.51-3.12,0.51c-0.17,0-0.5-0.08-0.5-0.51c0-1.18,0.67-3.71,3.54-4.04C532.5,78.24,533.17,78.24,533.84,78.24z"
						/>
				</g>
				<g>
					<path class="st1" d="M571.91,88.68c-3.03,9.6-10.02,20.38-16.42,20.38c-3.2,0-6.91-3.96-7.24-6.32
						c-0.25-1.52-0.42-3.03-0.42-4.63c-0.09-10.53,6.23-20.89,13.56-25.6c1.18-0.76,2.61-1.18,3.87-1.18c3.12,0,6.57,1.52,8.17,4.29
						c0.17,1.01,0.25,2.11,0.25,3.2c0,1.85-0.09,3.45-0.51,5.56c5.81-0.5,8.25-1.6,10.02-5.56c0-0.08,1.6-0.42,2.02-0.42
						C585.47,84.39,577.47,90.11,571.91,88.68z M568.12,87c-1.77-1.6-3.03-3.71-3.71-5.47c-5.64,5.64-9.6,13.64-9.6,20.13
						c0,0.93,0.08,1.77,0.25,2.61C558.86,103.76,564.84,94.91,568.12,87z"/>
				</g>
			</g>
		</g>
	</g>
</g>
</svg>
